<svg width="204" height="24" viewBox="0 0 204 24" fill="none" xmlns="http://www.w3.org/2000/svg">
<path d="M15.752 1.1H19.912V23.5H15.752V1.1ZM4.168 23.5H0.00800014V1.1H4.168V23.5ZM16.072 13.9H3.816V10.348H16.072V13.9ZM29.7543 10.412H40.8903V13.836H29.7543V10.412ZM30.0743 20.012H42.7143V23.5H25.9143V1.1H42.2663V4.588H30.0743V20.012ZM50.8398 23.82C49.4104 23.82 48.0878 23.5427 46.8718 22.988C45.6771 22.4333 44.6958 21.6333 43.9277 20.588L46.2958 17.74C46.9144 18.5933 47.5864 19.2333 48.3118 19.66C49.0584 20.0867 49.8691 20.3 50.7438 20.3C53.0691 20.3 54.2318 18.924 54.2318 16.172V4.588H46.2638V1.1H58.3918V15.948C58.3918 18.5933 57.7411 20.5667 56.4398 21.868C55.1598 23.1693 53.2931 23.82 50.8398 23.82ZM74.7228 23.82C72.9734 23.82 71.3628 23.532 69.8908 22.956C68.4188 22.38 67.1388 21.58 66.0508 20.556C64.9628 19.5107 64.1201 18.2947 63.5228 16.908C62.9254 15.5 62.6268 13.964 62.6268 12.3C62.6268 10.636 62.9254 9.11067 63.5228 7.724C64.1201 6.316 64.9628 5.1 66.0508 4.076C67.1388 3.03067 68.4188 2.22 69.8908 1.644C71.3628 1.068 72.9628 0.779999 74.6908 0.779999C76.4401 0.779999 78.0401 1.068 79.4908 1.644C80.9628 2.22 82.2428 3.03067 83.3308 4.076C84.4188 5.1 85.2614 6.316 85.8588 7.724C86.4561 9.11067 86.7548 10.636 86.7548 12.3C86.7548 13.964 86.4561 15.5 85.8588 16.908C85.2614 18.316 84.4188 19.532 83.3308 20.556C82.2428 21.58 80.9628 22.38 79.4908 22.956C78.0401 23.532 76.4508 23.82 74.7228 23.82ZM74.6908 20.172C75.8214 20.172 76.8668 19.98 77.8268 19.596C78.7868 19.212 79.6188 18.668 80.3228 17.964C81.0268 17.2387 81.5708 16.4067 81.9548 15.468C82.3601 14.508 82.5628 13.452 82.5628 12.3C82.5628 11.148 82.3601 10.1027 81.9548 9.164C81.5708 8.204 81.0268 7.372 80.3228 6.668C79.6188 5.94267 78.7868 5.388 77.8268 5.004C76.8668 4.62 75.8214 4.428 74.6908 4.428C73.5601 4.428 72.5148 4.62 71.5548 5.004C70.6161 5.388 69.7841 5.94267 69.0588 6.668C68.3548 7.372 67.8001 8.204 67.3948 9.164C67.0108 10.1027 66.8188 11.148 66.8188 12.3C66.8188 13.4307 67.0108 14.476 67.3948 15.436C67.8001 16.396 68.3548 17.2387 69.0588 17.964C69.7628 18.668 70.5948 19.212 71.5548 19.596C72.5148 19.98 73.5601 20.172 74.6908 20.172ZM91.1643 23.5V1.1H100.38C102.364 1.1 104.06 1.42 105.468 2.06C106.898 2.7 107.996 3.61733 108.764 4.812C109.532 6.00667 109.916 7.42533 109.916 9.068C109.916 10.7107 109.532 12.1293 108.764 13.324C107.996 14.5187 106.898 15.436 105.468 16.076C104.06 16.716 102.364 17.036 100.38 17.036H93.4683L95.3243 15.084V23.5H91.1643ZM95.3243 15.532L93.4683 13.516H100.188C102.023 13.516 103.399 13.132 104.316 12.364C105.255 11.5747 105.724 10.476 105.724 9.068C105.724 7.63867 105.255 6.54 104.316 5.772C103.399 5.004 102.023 4.62 100.188 4.62H93.4683L95.3243 2.572V15.532ZM114.071 23.5V1.1H123.287C125.271 1.1 126.967 1.42 128.375 2.06C129.804 2.7 130.903 3.61733 131.671 4.812C132.439 6.00667 132.823 7.42533 132.823 9.068C132.823 10.7107 132.439 12.1293 131.671 13.324C130.903 14.4973 129.804 15.404 128.375 16.044C126.967 16.6627 125.271 16.972 123.287 16.972H116.375L118.231 15.084V23.5H114.071ZM128.727 23.5L123.063 15.372H127.51L133.207 23.5H128.727ZM118.231 15.532L116.375 13.548H123.095C124.929 13.548 126.305 13.1533 127.222 12.364C128.161 11.5747 128.631 10.476 128.631 9.068C128.631 7.63867 128.161 6.54 127.222 5.772C126.305 5.004 124.929 4.62 123.095 4.62H116.375L118.231 2.572V15.532ZM147.973 23.82C146.223 23.82 144.613 23.532 143.141 22.956C141.669 22.38 140.389 21.58 139.301 20.556C138.213 19.5107 137.37 18.2947 136.773 16.908C136.175 15.5 135.877 13.964 135.877 12.3C135.877 10.636 136.175 9.11067 136.773 7.724C137.37 6.316 138.213 5.1 139.301 4.076C140.389 3.03067 141.669 2.22 143.141 1.644C144.613 1.068 146.213 0.779999 147.941 0.779999C149.69 0.779999 151.29 1.068 152.741 1.644C154.213 2.22 155.493 3.03067 156.581 4.076C157.669 5.1 158.511 6.316 159.109 7.724C159.706 9.11067 160.005 10.636 160.005 12.3C160.005 13.964 159.706 15.5 159.109 16.908C158.511 18.316 157.669 19.532 156.581 20.556C155.493 21.58 154.213 22.38 152.741 22.956C151.29 23.532 149.701 23.82 147.973 23.82ZM147.941 20.172C149.071 20.172 150.117 19.98 151.077 19.596C152.037 19.212 152.869 18.668 153.573 17.964C154.277 17.2387 154.821 16.4067 155.205 15.468C155.61 14.508 155.813 13.452 155.813 12.3C155.813 11.148 155.61 10.1027 155.205 9.164C154.821 8.204 154.277 7.372 153.573 6.668C152.869 5.94267 152.037 5.388 151.077 5.004C150.117 4.62 149.071 4.428 147.941 4.428C146.81 4.428 145.765 4.62 144.805 5.004C143.866 5.388 143.034 5.94267 142.309 6.668C141.605 7.372 141.05 8.204 140.645 9.164C140.261 10.1027 140.069 11.148 140.069 12.3C140.069 13.4307 140.261 14.476 140.645 15.436C141.05 16.396 141.605 17.2387 142.309 17.964C143.013 18.668 143.845 19.212 144.805 19.596C145.765 19.98 146.81 20.172 147.941 20.172ZM164.414 23.5V1.1H173.63C175.614 1.1 177.31 1.42 178.718 2.06C180.148 2.7 181.246 3.61733 182.014 4.812C182.782 6.00667 183.166 7.42533 183.166 9.068C183.166 10.7107 182.782 12.1293 182.014 13.324C181.246 14.5187 180.148 15.436 178.718 16.076C177.31 16.716 175.614 17.036 173.63 17.036H166.718L168.574 15.084V23.5H164.414ZM168.574 15.532L166.718 13.516H173.438C175.273 13.516 176.649 13.132 177.566 12.364C178.505 11.5747 178.974 10.476 178.974 9.068C178.974 7.63867 178.505 6.54 177.566 5.772C176.649 5.004 175.273 4.62 173.438 4.62H166.718L168.574 2.572V15.532ZM194.577 23.82C192.828 23.82 191.153 23.5747 189.553 23.084C187.953 22.572 186.684 21.9213 185.745 21.132L187.185 17.9C188.081 18.604 189.19 19.1907 190.513 19.66C191.836 20.1293 193.19 20.364 194.577 20.364C195.75 20.364 196.7 20.236 197.425 19.98C198.15 19.724 198.684 19.3827 199.025 18.956C199.366 18.508 199.537 18.0067 199.537 17.452C199.537 16.7693 199.292 16.2253 198.801 15.82C198.31 15.3933 197.67 15.0627 196.881 14.828C196.113 14.572 195.249 14.3373 194.289 14.124C193.35 13.9107 192.401 13.6653 191.441 13.388C190.502 13.0893 189.638 12.716 188.849 12.268C188.081 11.7987 187.452 11.18 186.961 10.412C186.47 9.644 186.225 8.66267 186.225 7.468C186.225 6.252 186.545 5.14267 187.185 4.14C187.846 3.116 188.838 2.30533 190.161 1.708C191.505 1.08933 193.201 0.779999 195.249 0.779999C196.593 0.779999 197.926 0.950666 199.249 1.292C200.572 1.63333 201.724 2.124 202.705 2.764L201.393 5.996C200.39 5.39867 199.356 4.96133 198.289 4.684C197.222 4.38533 196.198 4.236 195.217 4.236C194.065 4.236 193.126 4.37466 192.401 4.652C191.697 4.92933 191.174 5.292 190.833 5.74C190.513 6.188 190.353 6.7 190.353 7.276C190.353 7.95867 190.588 8.51333 191.057 8.94C191.548 9.34533 192.177 9.66533 192.945 9.9C193.734 10.1347 194.609 10.3693 195.569 10.604C196.529 10.8173 197.478 11.0627 198.417 11.34C199.377 11.6173 200.241 11.98 201.009 12.428C201.798 12.876 202.428 13.484 202.897 14.252C203.388 15.02 203.633 15.9907 203.633 17.164C203.633 18.3587 203.302 19.468 202.641 20.492C202.001 21.4947 201.009 22.3053 199.665 22.924C198.321 23.5213 196.625 23.82 194.577 23.82Z" fill="black"/>
</svg>
