<svg width="36" height="36" viewBox="0 0 36 36" fill="none" xmlns="http://www.w3.org/2000/svg">
<path d="M18.0001 9.79688C18.0001 14.3273 14.2996 18 9.73479 18H1.46948V9.79688C1.46948 5.26641 5.16998 1.59375 9.73479 1.59375C14.2996 1.59375 18.0001 5.26641 18.0001 9.79688Z" fill="#17CF97"/>
<path d="M18 26.2031C18 21.6727 21.7005 18 26.2653 18H34.5306V26.2031C34.5306 30.7336 30.8301 34.4062 26.2653 34.4062C21.7005 34.4062 18 30.7336 18 26.2031Z" fill="#17CF97"/>
<path d="M1.46948 26.2031C1.46948 30.7336 5.16998 34.4062 9.73479 34.4062H18.0001V26.2031C18.0001 21.6727 14.2996 18 9.73479 18C5.16998 18 1.46948 21.6727 1.46948 26.2031Z" fill="#17CF97"/>
<path d="M34.5306 9.79688C34.5306 5.26641 30.8301 1.59375 26.2653 1.59375H18V9.79688C18 14.3273 21.7005 18 26.2653 18C30.8301 18 34.5306 14.3273 34.5306 9.79688Z" fill="#17CF97"/>
</svg>
